<svg xmlns="http://www.w3.org/2000/svg" xmlns:xlink="http://www.w3.org/1999/xlink" width="1085.075" height="1419.382" viewBox="0 0 1085.075 1419.382">
  <defs>
    <filter id="Union_1" x="258.146" y="636.506" width="568.625" height="273.685" filterUnits="userSpaceOnUse">
      <feOffset dy="3" input="SourceAlpha"/>
      <feGaussianBlur stdDeviation="3" result="blur"/>
      <feFlood flood-opacity="0.361"/>
      <feComposite operator="in" in2="blur"/>
      <feComposite in="SourceGraphic"/>
    </filter>
  </defs>
  <g id="Group_640" data-name="Group 640" transform="translate(-48.158 -264.988)" opacity="0.48">
    <g id="Group_638" data-name="Group 638" transform="translate(51.158 267.988)">
      <path id="Path_175" data-name="Path 175" d="M539.538,0c297.979,0,539.538,241.559,539.538,539.538s-241.559,539.538-539.538,539.538S0,837.516,0,539.538,241.559,0,539.538,0Z" transform="translate(0 0)" fill="none" stroke="#fff" stroke-width="6" stroke-dasharray="12 0 20"/>
      <rect id="Rectangle_145" data-name="Rectangle 145" width="570.035" height="99.94" transform="translate(783.632 876.294) rotate(59)" fill="#fff"/>
    </g>
    <g id="Group_604" data-name="Group 604" transform="translate(100.834 312.734)">
      <g id="Group_603" data-name="Group 603" transform="translate(0 0)">
        <circle id="Ellipse_25" data-name="Ellipse 25" cx="489.859" cy="489.859" r="489.859" transform="translate(0 0)" fill="#fff"/>
      </g>
      <path id="Path_134" data-name="Path 134" d="M1448.721,1500.091V1765.51l-509.681,2.153V1500.091L1185.7,1215.82Z" transform="translate(-704.023 -1113.141)" fill="#fff" stroke="#27aae1" stroke-miterlimit="10" stroke-width="7"/>
      <rect id="Rectangle_99" data-name="Rectangle 99" width="622.886" height="356.559" transform="translate(150 385.049)" fill="#fff"/>
      <path id="Path_135" data-name="Path 135" d="M1451.092,1522.681V1788.1l-509.682,2.152V1522.681l246.658-284.3Z" transform="translate(-706.392 -1067.648)" fill="#29b6f6"/>
      <text id="Property" transform="translate(293.82 420.567)" fill="#fff" font-size="41" font-family="MyriadPro-Regular, Myriad Pro"><tspan x="0" y="0" letter-spacing="-0.02em">P</tspan><tspan y="0" letter-spacing="-0.01em">r</tspan><tspan y="0">ope</tspan><tspan y="0" letter-spacing="0.02em">r</tspan><tspan y="0" letter-spacing="0.01em">t</tspan><tspan y="0">y</tspan></text>
      <text id="Rental" transform="translate(293.817 506.791)" fill="#fff" font-size="68" font-family="MyriadPro-Regular, Myriad Pro"><tspan x="0" y="0">Rental</tspan></text>
      <rect id="Rectangle_106" data-name="Rectangle 106" width="118.661" height="218.227" transform="translate(596.182 523.381)" fill="#fff"/>
      <g transform="matrix(1, 0, 0, 1, -52.68, -47.75)" filter="url(#Union_1)">
        <path id="Union_1-2" data-name="Union 1" d="M0,127.842A127.842,127.842,0,0,1,127.842,0h.033A127.926,127.926,0,0,1,251.42,94.985H508.47l42.155,34.406-38.911,29.032-46.53.393c-3.662-4.907-15.573-20.488-22.577-20.488s-19.669,16.523-22.913,20.914l-28.155.246c-2.884-4-15.614-21.217-23.068-21.217s-21.274,18.546-23.4,21.577l-20.34.188c-1.606-2.187-15.917-21.766-23.519-21.766-8.094,0-23.674,21.971-23.674,21.971h2.884v.213l-29.005.259A127.861,127.861,0,0,1,0,127.842Zm91.774,0a36.069,36.069,0,1,0,36.069-36.069A36.066,36.066,0,0,0,91.774,127.842Z" transform="translate(267.15 642.51)" fill="#0085c3"/>
      </g>
      <rect id="Rectangle_107" data-name="Rectangle 107" width="236.473" height="9.184" transform="translate(467.368 702.569)" fill="#fff"/>
      <circle id="Ellipse_29" data-name="Ellipse 29" cx="36.068" cy="36.068" r="36.068" transform="translate(306.276 686.536)" fill="#fff"/>
    </g>
  </g>
</svg>
