<svg xmlns="http://www.w3.org/2000/svg" xmlns:xlink="http://www.w3.org/1999/xlink" width="558.218" height="727.835" viewBox="0 0 558.218 727.835">
  <defs>
    <filter id="Union_1" x="129.177" y="324.268" width="299.783" height="148.847" filterUnits="userSpaceOnUse">
      <feOffset dy="3" input="SourceAlpha"/>
      <feGaussianBlur stdDeviation="3" result="blur"/>
      <feFlood flood-opacity="0.361"/>
      <feComposite operator="in" in2="blur"/>
      <feComposite in="SourceGraphic"/>
    </filter>
  </defs>
  <g id="Group_640" data-name="Group 640" transform="translate(-48.157 -264.988)" opacity="0.8">
    <g id="Group_638" data-name="Group 638" transform="translate(51.158 267.988)">
      <path id="Path_175" data-name="Path 175" d="M276.109,0C428.6,0,552.218,123.618,552.218,276.109S428.6,552.218,276.109,552.218,0,428.6,0,276.109,123.618,0,276.109,0Z" transform="translate(0 0)" fill="none" stroke="#fff" stroke-width="6" stroke-dasharray="12 0 20"/>
      <rect id="Rectangle_145" data-name="Rectangle 145" width="291.716" height="51.144" transform="translate(401.024 448.444) rotate(59)" fill="#fff"/>
    </g>
    <g id="Group_604" data-name="Group 604" transform="translate(76.58 290.887)">
      <g id="Group_603" data-name="Group 603" transform="translate(0 0)">
        <circle id="Ellipse_25" data-name="Ellipse 25" cx="250.686" cy="250.686" r="250.686" transform="translate(0 0)" fill="#fff"/>
      </g>
      <path id="Path_134" data-name="Path 134" d="M1199.87,1361.3v135.828l-260.83,1.1V1361.3l126.227-145.476Z" transform="translate(-818.77 -1163.274)" fill="#fff" stroke="#27aae1" stroke-miterlimit="10" stroke-width="7"/>
      <rect id="Rectangle_99" data-name="Rectangle 99" width="318.763" height="182.469" transform="translate(76.763 197.049)" fill="#fff"/>
      <path id="Path_135" data-name="Path 135" d="M1202.24,1383.871V1519.7l-260.83,1.1v-136.93l126.228-145.491Z" transform="translate(-821.139 -1151.007)" fill="#29b6f6"/>
      <text id="Property" transform="translate(150.363 215.361)" fill="#fff" font-size="21" font-family="MyriadPro-Regular, Myriad Pro"><tspan x="0" y="0" letter-spacing="-0.02em">P</tspan><tspan y="0" letter-spacing="-0.01em">r</tspan><tspan y="0">ope</tspan><tspan y="0" letter-spacing="0.02em">r</tspan><tspan y="0" letter-spacing="0.01em">t</tspan><tspan y="0">y</tspan></text>
      <text id="Rental" transform="translate(150.361 259.252)" fill="#fff" font-size="34" font-family="MyriadPro-Regular, Myriad Pro"><tspan x="0" y="0">Rental</tspan></text>
      <rect id="Rectangle_106" data-name="Rectangle 106" width="60.725" height="111.678" transform="translate(305.097 267.841)" fill="#fff"/>
      <g transform="matrix(1, 0, 0, 1, -28.42, -25.9)" filter="url(#Union_1)">
        <path id="Union_1-2" data-name="Union 1" d="M0,65.424A65.423,65.423,0,0,1,65.424,0h.017a65.466,65.466,0,0,1,63.224,48.609H260.21l21.573,17.607L261.87,81.073l-23.812.2c-1.874-2.511-7.969-10.485-11.554-10.485s-10.065,8.456-11.726,10.7l-14.409.126c-1.476-2.046-7.99-10.858-11.805-10.858S177.678,80.251,176.592,81.8l-10.409.1c-.822-1.119-8.145-11.139-12.036-11.139C150.005,70.76,142.032,82,142.032,82h1.476v.109l-14.844.132A65.433,65.433,0,0,1,0,65.424Zm46.965,0A18.458,18.458,0,1,0,65.424,46.965,18.457,18.457,0,0,0,46.965,65.424Z" transform="translate(138.18 330.27)" fill="#0085c3"/>
      </g>
      <rect id="Rectangle_107" data-name="Rectangle 107" width="121.015" height="4.7" transform="translate(239.176 359.541)" fill="#fff"/>
      <circle id="Ellipse_29" data-name="Ellipse 29" cx="18.458" cy="18.458" r="18.458" transform="translate(156.737 351.336)" fill="#fff"/>
    </g>
  </g>
</svg>
