<svg xmlns="http://www.w3.org/2000/svg" width="131.98" height="19" viewBox="0 0 131.98 19">
  <g id="Group_757" data-name="Group 757" transform="translate(-852.021 -565)">
    <path id="star-f" d="M10,16.379,3.827,19.624,5.006,12.75l-5-4.868,6.9-1L10,.624l3.087,6.255,6.9,1L14.994,12.75l.27,1.575.91,5.3Z" transform="translate(936.012 564.376)" fill="#29b6f6"/>
    <path id="star-f-2" data-name="star-f" d="M10,16.379,3.827,19.624,5.006,12.75l-5-4.868,6.9-1L10,.624l3.087,6.255,6.9,1L14.994,12.75l1.18,6.874Z" transform="translate(852.011 564.376)" fill="#29b6f6"/>
    <path id="star-f-3" data-name="star-f" d="M10,16.379,3.827,19.624,5.006,12.75l-5-4.868,6.9-1L10,.624l3.087,6.255,6.9,1L14.994,12.75l1.18,6.874Z" transform="translate(908.011 564.376)" fill="#29b6f6"/>
    <path id="star-f-4" data-name="star-f" d="M10,16.379,3.827,19.624,5.006,12.75l-5-4.868,6.9-1L10,.624l3.087,6.255,6.9,1L14.994,12.75l1.18,6.874Z" transform="translate(880.031 564.376)" fill="#29b6f6"/>
    <path id="star-f-5" data-name="star-f" d="M10,16.379,3.827,19.624,5.006,12.75l-5-4.868,6.9-1L10,.624l3.087,6.255,6.9,1L14.994,12.75l1.18,6.874Z" transform="translate(964.012 564.376)" fill="#29b6f6"/>
  </g>
</svg>
